<?xml version="1.0" standalone="no"?>
<!DOCTYPE svg PUBLIC "-//W3C//DTD SVG 20010904//EN"
 "http://www.w3.org/TR/2001/REC-SVG-20010904/DTD/svg10.dtd">
<svg version="1.0" xmlns="http://www.w3.org/2000/svg"
 width="960.000000pt" height="960.000000pt" viewBox="0 0 960.000000 960.000000"
 preserveAspectRatio="xMidYMid meet">
<metadata>
Created by potrace 1.14, written by Peter Selinger 2001-2017
</metadata>
<g transform="translate(0.000000,960.000000) scale(0.100000,-0.100000)"
fill="#000000" stroke="none">
<path d="M3635 9109 c-4 -6 -13 -8 -21 -5 -8 3 -14 1 -14 -4 0 -6 -3 -9 -7 -8
-13 3 -66 -29 -98 -59 -75 -71 -104 -147 -102 -256 2 -70 6 -82 71 -213 38
-76 70 -141 71 -144 2 -7 68 -140 83 -165 6 -11 33 -65 60 -121 27 -55 54
-109 60 -120 6 -10 71 -140 144 -289 73 -148 136 -273 141 -276 5 -3 8 -10 8
-15 -1 -5 81 -173 181 -374 100 -201 183 -367 183 -370 0 -3 7 -16 15 -30 30
-53 140 -281 140 -290 0 -6 5 -10 10 -10 6 0 9 -3 8 -7 -2 -10 264 -546 275
-554 5 -3 8 -9 8 -13 -1 -3 73 -156 164 -339 91 -183 165 -338 165 -344 0 -6
4 -13 9 -15 5 -1 31 -48 56 -103 53 -113 64 -191 39 -276 -8 -25 -88 -193
-178 -373 -90 -179 -161 -326 -158 -326 2 0 0 -6 -6 -13 -10 -12 -297 -585
-721 -1437 -91 -184 -169 -336 -173 -338 -5 -2 -8 -8 -8 -13 0 -14 -343 -703
-353 -710 -5 -3 -8 -10 -8 -15 0 -5 -38 -85 -84 -179 -47 -93 -84 -174 -84
-179 0 -5 -4 -12 -9 -15 -13 -8 -97 -187 -109 -231 -14 -51 -6 -127 18 -193
26 -70 93 -142 165 -178 l49 -24 1840 0 c1012 -1 1860 3 1884 7 64 11 127 46
171 94 36 39 126 200 122 217 -1 4 2 7 7 7 5 0 12 10 16 23 4 12 8 24 9 27 4
9 218 435 227 450 4 8 36 74 71 145 35 72 66 132 71 133 4 2 7 8 7 13 0 6 168
349 374 762 206 414 375 756 374 761 0 5 4 12 9 15 4 3 67 125 140 271 258
520 613 1232 620 1243 4 7 9 17 10 22 1 6 7 30 13 55 17 67 6 148 -31 227 -18
37 -31 71 -31 76 1 4 -2 7 -8 7 -5 0 -10 4 -10 9 0 6 -175 362 -390 792 -214
431 -390 788 -390 795 0 7 -4 14 -8 16 -9 3 -181 346 -183 363 0 6 -5 15 -9
21 -13 15 -233 457 -236 472 -1 7 -8 19 -14 27 -10 12 -92 171 -95 185 0 3 -9
21 -20 40 -11 19 -20 37 -20 40 -3 14 -121 246 -128 251 -5 3 -9 9 -8 12 0 10
-51 121 -59 127 -4 3 -10 17 -14 33 -3 15 -11 27 -16 27 -6 0 -10 5 -10 11 0
7 -79 171 -176 365 -189 381 -209 410 -306 461 l-53 28 -1867 3 c-1321 1
-1869 -1 -1873 -9z"/>
<path d="M2080 8712 c-42 -5 -124 -35 -136 -49 -6 -7 -13 -10 -16 -8 -3 3 -23
-14 -46 -39 -30 -32 -110 -184 -313 -592 -150 -302 -278 -552 -283 -556 -6 -4
-7 -8 -2 -8 5 0 3 -7 -4 -15 -7 -8 -9 -15 -4 -15 5 0 4 -4 -1 -8 -13 -9 -76
-133 -74 -146 0 -5 -3 -12 -8 -15 -7 -5 -427 -844 -677 -1351 -33 -69 -67
-131 -74 -138 -6 -7 -12 -18 -12 -23 0 -15 -253 -523 -265 -531 -5 -4 -6 -8
-1 -8 5 0 3 -7 -4 -15 -7 -8 -9 -15 -4 -15 5 0 4 -4 -2 -8 -6 -4 -42 -70 -79
-146 -64 -132 -68 -144 -71 -217 -1 -51 3 -86 12 -104 8 -15 14 -31 14 -36 0
-5 269 -548 597 -1206 329 -659 598 -1200 598 -1203 0 -3 4 -10 8 -17 20 -31
194 -383 190 -383 -3 0 0 -6 6 -14 15 -18 229 -449 227 -457 0 -3 4 -12 11
-20 7 -8 48 -87 92 -174 92 -182 97 -190 131 -221 129 -118 335 -112 455 11
35 36 98 143 94 161 0 4 3 10 8 13 10 7 433 858 433 871 0 6 5 10 10 10 6 0
10 6 10 13 0 18 24 67 33 67 4 0 7 5 7 11 0 6 140 293 312 638 172 344 312
628 313 631 0 3 5 12 10 20 17 27 61 124 74 162 15 45 17 108 7 163 -4 22
-108 243 -231 490 -123 248 -227 466 -233 485 -14 55 -6 150 19 205 12 28 23
56 25 63 1 7 8 20 15 28 14 17 61 112 65 132 1 8 9 21 17 30 9 10 19 29 22 45
4 15 12 27 18 27 6 0 7 3 4 6 -4 4 2 19 13 34 11 16 20 31 20 35 0 4 52 110
115 236 63 126 120 248 127 271 15 52 17 121 5 168 -5 19 -139 297 -298 616
-159 320 -289 587 -289 592 0 6 -4 12 -8 14 -9 3 -52 93 -52 108 0 5 -4 10
-10 10 -5 0 -10 4 -10 10 0 14 -523 1064 -532 1068 -5 2 -8 9 -8 16 0 6 -13
36 -30 66 -16 30 -33 62 -37 70 -12 26 -82 86 -127 109 -24 11 -63 24 -87 27
-24 3 -48 6 -54 8 -5 1 -21 0 -35 -2z"/>
</g>
</svg>
